name 900006_25.mot
datacolumns 153
datarows 4
range 1.12500000 1.14999998
endheader

                time	           pelvis_tx	           pelvis_ty	           pelvis_tz	         pelvis_tilt	         pelvis_list	     pelvis_rotation	       hip_flexion_r	     hip_adduction_r	      hip_rotation_r	        knee_angle_r	       ankle_angle_r	    subtalar_angle_r	         mtp_angle_r	       hip_flexion_l	     hip_adduction_l	      hip_rotation_l	        knee_angle_l	       ankle_angle_l	    subtalar_angle_l	         mtp_angle_l	    lumbar_extension	      lumbar_bending	     lumbar_rotation	     ground_force_vx	     ground_force_vy	     ground_force_vz	     ground_force_px	     ground_force_py	     ground_force_pz	     ground_force_vx	     ground_force_vy	     ground_force_vz	     ground_force_px	     ground_force_py	     ground_force_pz	     ground_torque_x	     ground_torque_y	     ground_torque_z	     ground_torque_x	     ground_torque_y	     ground_torque_z	    ground_marker_px	    ground_marker_py	    ground_marker_pz	    ground_marker_px	    ground_marker_py	    ground_marker_pz	    ground_marker_px	    ground_marker_py	    ground_marker_pz	    ground_marker_px	    ground_marker_py	    ground_marker_pz	    ground_marker_px	    ground_marker_py	    ground_marker_pz	    ground_marker_px	    ground_marker_py	    ground_marker_pz	    ground_marker_px	    ground_marker_py	    ground_marker_pz	    ground_marker_px	    ground_marker_py	    ground_marker_pz	    ground_marker_px	    ground_marker_py	    ground_marker_pz	    ground_marker_px	    ground_marker_py	    ground_marker_pz	    ground_marker_px	    ground_marker_py	    ground_marker_pz	    ground_marker_px	    ground_marker_py	    ground_marker_pz	    ground_marker_px	    ground_marker_py	    ground_marker_pz	    ground_marker_px	    ground_marker_py	    ground_marker_pz	    ground_marker_px	    ground_marker_py	    ground_marker_pz	    ground_marker_px	    ground_marker_py	    ground_marker_pz	    ground_marker_px	    ground_marker_py	    ground_marker_pz	    ground_marker_px	    ground_marker_py	    ground_marker_pz	    ground_marker_px	    ground_marker_py	    ground_marker_pz	    ground_marker_px	    ground_marker_py	    ground_marker_pz	    ground_marker_px	    ground_marker_py	    ground_marker_pz	    ground_marker_px	    ground_marker_py	    ground_marker_pz	    ground_marker_px	    ground_marker_py	    ground_marker_pz	    ground_marker_px	    ground_marker_py	    ground_marker_pz	    ground_marker_px	    ground_marker_py	    ground_marker_pz	    ground_marker_px	    ground_marker_py	    ground_marker_pz	    ground_marker_px	    ground_marker_py	    ground_marker_pz	    ground_marker_px	    ground_marker_py	    ground_marker_pz	    ground_marker_px	    ground_marker_py	    ground_marker_pz	    ground_marker_px	    ground_marker_py	    ground_marker_pz	    ground_marker_px	    ground_marker_py	    ground_marker_pz	    ground_marker_px	    ground_marker_py	    ground_marker_pz	    ground_marker_px	    ground_marker_py	    ground_marker_pz	    ground_marker_px	    ground_marker_py	    ground_marker_pz	    ground_marker_px	    ground_marker_py	    ground_marker_pz	    ground_marker_px	    ground_marker_py	    ground_marker_pz	    ground_marker_px	    ground_marker_py	    ground_marker_pz	
          1.12500000	         -1.47367287	          0.84679604	          0.31445646	          3.00179482	          3.49206638	         -2.73802733	          0.22320366	         -0.13252032	          0.55525208	        -10.17979145	          6.81800413	          0.00000000	          0.00000000	         15.08523750	         -0.41309097	         -2.28397274	        -40.18826294	         10.13211441	          0.00000000	          0.00000000	         -3.61561179	          1.74392188	         -1.65824282	         -7.95689988	        404.14719635	         -9.54811708	         -1.52538208	          0.00000000	          0.33487598	          0.00000000	          0.00000000	          0.00000000	         -1.89635645	          0.00000000	          0.22225014	          0.00000000	          1.06249048	          0.00000000	          0.00000000	          0.00000000	          0.00000000	         -1.50779319	          0.77524281	          0.30053857	         -1.51895285	          0.76910233	          0.35653579	         -1.49663365	          0.78138334	          0.24454133	         -1.56059086	          0.42122418	          0.35635504	         -1.43628907	          0.43342111	          0.22501005	         -1.57448626	          0.06462965	          0.32907599	         -1.56287193	          0.10403292	          0.22820763	         -1.47367287	          0.84679604	          0.31445646	         -1.47997224	          0.84094965	          0.42522770	         -1.46737361	          0.85264248	          0.20368521	         -1.65130234	          0.87534219	          0.33414617	         -1.65008497	          0.87520498	          0.28033412	         -1.53417563	          0.41725823	          0.41605797	         -1.43022239	          0.43075585	          0.16599616	         -1.54378414	          0.42129952	          0.29658747	         -1.42130840	          0.42616853	          0.28998774	         -1.58039522	          0.06216158	          0.36602515	         -1.57823884	          0.10964628	          0.19557947	         -1.57472456	          0.06190726	          0.29576129	         -1.55794835	          0.10384360	          0.26148188	         -1.48620164	          1.20102715	          0.31304821	         -1.47576511	          1.09987330	          0.30298269	         -1.59519947	          1.26962662	          0.31426185	         -1.49175942	          0.04634054	          0.34738344	         -1.48615587	          0.06750316	          0.20150630	         -1.41189492	          0.55917400	          0.39281228	         -1.35591125	          0.60435671	          0.16451767	         -1.46703684	          0.59576863	          0.42876893	         -1.39292216	          0.63776261	          0.22854808	         -1.47740793	          0.53994173	          0.42225757	         -1.38476050	          0.58085167	          0.23546965	         -1.44290638	          0.17198761	          0.36471045	         -1.56291294	          0.21716683	          0.10954696	         -1.52339113	          0.15943953	          0.34796548	         -1.54585505	          0.20130067	          0.18565278	         -1.48820627	          1.19666243	          0.36924440	         -1.47908497	          1.20547700	          0.26350009	
          1.13333333	         -1.46954060	          0.84659648	          0.31503916	          2.96405029	          3.58449650	         -2.75082660	         -0.26042747	         -0.19990516	          0.41404229	         -9.79265499	          7.02255058	          0.00000000	          0.00000000	         15.71226501	         -0.39459014	         -2.46961927	        -39.06921387	         10.13395500	          0.00000000	          0.00000000	         -3.78848386	          1.51362085	         -1.57316792	         -6.72504121	        405.24017999	         -9.57670407	         -1.52362830	          0.00000000	          0.33523529	          0.00000000	          0.00000000	          0.00000000	         -1.89573645	          0.00000000	          0.22218930	          0.00000000	          1.11274927	          0.00000000	          0.00000000	          0.00000000	          0.00000000	         -1.50374508	          0.77507174	          0.30100125	         -1.51493108	          0.76885259	          0.35698453	         -1.49255908	          0.78129089	          0.24501796	         -1.55857074	          0.42081282	          0.35646591	         -1.42681754	          0.43358311	          0.22535615	         -1.57441568	          0.06462654	          0.32896802	         -1.54534185	          0.10111304	          0.22872099	         -1.46954060	          0.84659648	          0.31503916	         -1.47589731	          0.84058082	          0.42581534	         -1.46318400	          0.85261214	          0.20426300	         -1.64720333	          0.87528729	          0.33451885	         -1.64598966	          0.87517458	          0.28049824	         -1.53344834	          0.41716275	          0.41618332	         -1.42260659	          0.43149027	          0.16632394	         -1.54181492	          0.42054629	          0.29748994	         -1.41287279	          0.42648476	          0.28965923	         -1.58044136	          0.06216250	          0.36589861	         -1.56087327	          0.10624804	          0.19609195	         -1.57498407	          0.06311456	          0.29550597	         -1.54035103	          0.10120717	          0.26198724	         -1.48168731	          1.20069683	          0.31352133	         -1.47164452	          1.09948158	          0.30367410	         -1.59036684	          1.26960874	          0.31520250	         -1.49162805	          0.04643037	          0.34728301	         -1.46765137	          0.06691390	          0.20201866	         -1.40998781	          0.55801290	          0.39335302	         -1.34981942	          0.60566241	          0.16452348	         -1.46442640	          0.59502202	          0.42897823	         -1.38794518	          0.63859910	          0.22851083	         -1.47490489	          0.53960627	          0.42271298	         -1.37879825	          0.58183873	          0.23544960	         -1.44280326	          0.17174256	          0.36500424	         -1.54881012	          0.21402639	          0.11001489	         -1.52326334	          0.16079012	          0.34819874	         -1.53130519	          0.19877054	          0.18590277	         -1.48363841	          1.19646978	          0.36970377	         -1.47461569	          1.20500493	          0.26398066	
          1.14166665	         -1.46539700	          0.84632993	          0.31559682	          2.92488766	          3.65457821	         -2.76859045	         -0.71536732	         -0.24003525	          0.21538414	         -9.45709038	          7.26122475	          0.00000000	          0.00000000	         16.30190086	         -0.39498851	         -2.60871053	        -37.88828659	          9.99198055	          0.00000000	          0.00000000	         -3.90395594	          1.34508479	         -1.43640804	         -5.67423905	        406.93099441	         -9.60315724	         -1.52167078	          0.00000000	          0.33562524	          0.00000000	          0.00000000	          0.00000000	         -1.89507007	          0.00000000	          0.22216449	          0.00000000	          1.16797559	          0.00000000	          0.00000000	          0.00000000	          0.00000000	         -1.49968767	          0.77481627	          0.30144995	         -1.51089513	          0.76853812	          0.35742235	         -1.48848009	          0.78109443	          0.24547759	         -1.55785525	          0.42108762	          0.35652894	         -1.41680098	          0.43431023	          0.22571479	         -1.57430303	          0.06462649	          0.32885644	         -1.52780962	          0.09834333	          0.22913085	         -1.46539700	          0.84632993	          0.31559682	         -1.47181618	          0.84018743	          0.42641529	         -1.45897782	          0.85247242	          0.20477833	         -1.64308763	          0.87516218	          0.33482498	         -1.64186704	          0.87508327	          0.28066111	         -1.53259552	          0.41708249	          0.41629571	         -1.41517830	          0.43212226	          0.16666961	         -1.54087996	          0.42055824	          0.29797649	         -1.40348876	          0.42624208	          0.28806546	         -1.58046746	          0.06217323	          0.36576486	         -1.54344344	          0.10298398	          0.19647667	         -1.57474482	          0.06370796	          0.29530719	         -1.52247083	          0.09837561	          0.26226246	         -1.47695255	          1.20044267	          0.31389636	         -1.46720111	          1.09918487	          0.30419564	         -1.58541715	          1.26961088	          0.31584936	         -1.49143577	          0.04654419	          0.34714624	         -1.44921660	          0.06631316	          0.20263481	         -1.40799558	          0.55685240	          0.39401644	         -1.34363186	          0.60681862	          0.16454640	         -1.46212924	          0.59416586	          0.42940864	         -1.38263571	          0.63942605	          0.22873008	         -1.47303545	          0.53935885	          0.42324126	         -1.37235844	          0.58256477	          0.23522089	         -1.44265091	          0.17144118	          0.36535388	         -1.53456175	          0.21088572	          0.11036877	         -1.52279508	          0.16163129	          0.34821081	         -1.51620746	          0.19619618	          0.18624009	         -1.47880602	          1.19630849	          0.37014851	         -1.46996498	          1.20465505	          0.26427546	
          1.14999998	         -1.46122766	          0.84600818	          0.31613046	          2.88514042	          3.70385790	         -2.79485130	         -1.14283562	         -0.25607976	         -0.03359153	         -9.17147350	          7.50734854	          0.00000000	          0.00000000	         16.85548592	         -0.41053423	         -2.75056839	        -36.65600586	          9.69881916	          0.00000000	          0.00000000	         -3.98603106	          1.24207425	         -1.43954742	         -4.82126850	        409.32462204	         -9.61414385	         -1.51955591	          0.00000000	          0.33601260	          0.00000000	          0.00000000	          0.00000000	         -1.89436145	          0.00000000	          0.22218359	          0.00000000	          1.22846704	          0.00000000	          0.00000000	          0.00000000	          0.00000000	         -1.49560547	          0.77450359	          0.30189711	         -1.50684083	          0.76819062	          0.35786000	         -1.48436999	          0.78081656	          0.24593425	         -1.55674720	          0.42123976	          0.35660669	         -1.40989316	          0.43615648	          0.22608955	         -1.57413316	          0.06462961	          0.32874843	         -1.51029921	          0.09574462	          0.22942652	         -1.46122766	          0.84600818	          0.31613046	         -1.46772027	          0.83978051	          0.42700672	         -1.45473504	          0.85223585	          0.20525421	         -1.63894892	          0.87498158	          0.33504191	         -1.63768661	          0.87493533	          0.28081065	         -1.53160596	          0.41701576	          0.41640261	         -1.40795231	          0.43265623	          0.16705191	         -1.53924882	          0.42111942	          0.29740465	         -1.39662838	          0.42626277	          0.28589529	         -1.58047116	          0.06219589	          0.36562875	         -1.52599239	          0.09989107	          0.19673426	         -1.57410896	          0.06369759	          0.29517913	         -1.50525796	          0.09560893	          0.26262838	         -1.47227705	          1.20015669	          0.31397706	         -1.46275175	          1.09886789	          0.30437598	         -1.58079624	          1.26968384	          0.31597981	         -1.49122298	          0.04664905	          0.34701705	         -1.43086743	          0.06570175	          0.20330925	         -1.40585852	          0.55571586	          0.39481071	         -1.33752716	          0.60781515	          0.16457245	         -1.46029258	          0.59344089	          0.43032724	         -1.37647796	          0.64048511	          0.22919673	         -1.47145784	          0.53882569	          0.42377946	         -1.36597288	          0.58306050	          0.23496231	         -1.44245684	          0.17104597	          0.36580279	         -1.52024889	          0.20780313	          0.11063772	         -1.52200019	          0.16171557	          0.34817022	         -1.50166404	          0.19368045	          0.18693325	         -1.47418189	          1.19606853	          0.37037200	         -1.46524167	          1.20431781	          0.26421601	
